999
FreeCAD v0.20 29177 (Git)
  0
SECTION
  2
HEADER
  9
$ACADVER
  1
AC1014
  9
$ACADMAINTVER
 70
     9
  9
$DWGCODEPAGE
  3
ANSI_1252
  9
$TEXTSTYLE
  7
STANDARD
  9
$DIMSTYLE
  2
STANDARD
  9
$DIMTXSTY
  7
STANDARD
  9
$CMLSTYLE
  2
STANDARD
  9
$LUNITS
 70
2
  9
$INSUNITS
 70
4
  9
$PEXTMAX
 10
50
 20
50
 30
50
  9
$PEXTMIN
 10
0
 20
0
 30
0
  9
$HANDSEED
  5
FFFF
  0
ENDSEC
  0
SECTION
  2
CLASSES
  0
CLASS
  1
ACDBDICTIONARYWDFLT
  2
AcDbDictionaryWithDefault
  3
ObjectDBX Classes
 90
        0
280
     0
281
     0
  0
CLASS
  1
XRECORD
  2
AcDbXrecord
  3
ObjectDBX Classes
 90
        0
280
     0
281
     0
  0
CLASS
  1
LWPOLYLINE
  2
AcDbPolyline
  3
ObjectDBX Classes
 90
        0
280
     0
281
     1
  0
ENDSEC
  0
SECTION
  2
TABLES
  0
TABLE
  2
VPORT
  5
20
330
0
100
AcDbSymbolTable
 70
     1
  0
VPORT
  5
21
330
20
100
AcDbSymbolTableRecord
100
AcDbViewportTableRecord
  2
*ACTIVE
 70
     0
  0
ENDTAB
  0
TABLE
  2
LTYPE
  5
22
330
0
100
AcDbSymbolTable
 70
     1
  0
LTYPE
  5
23
330
21
100
AcDbSymbolTableRecord
100
AcDbLinetypeTableRecord
  2
BYBLOCK
 70
     0
  3

 72
    65
 73
     0
 40
0.0
  0
LTYPE
  5
24
330
21
100
AcDbSymbolTableRecord
100
AcDbLinetypeTableRecord
  2
BYLAYER
 70
     0
  3

 72
    65
 73
     0
 40
0.0
  0
LTYPE
  5
25
330
21
100
AcDbSymbolTableRecord
100
AcDbLinetypeTableRecord
  2
CONTINUOUS
 70
     0
  3
Solid line
 72
    65
 73
     0
 40
0.0
  0
ENDTAB
  0
TABLE
  2
LAYER
  5
A0B
330
0
100
AcDbSymbolTable
 70
3
  0
LAYER
  5
A0C
330
A0B
100
AcDbSymbolTableRecord
100
AcDbLayerTableRecord
  2
0
 70
   0
 62
   7
  6
CONTINUOUS
  0
LAYER
  5
A0D
330
A0B
100
AcDbSymbolTableRecord
100
AcDbLayerTableRecord
  2
none
 70
    0
 62
    7
  6
CONTINUOUS
  0
LAYER
  5
A0E
330
A0B
100
AcDbSymbolTableRecord
100
AcDbLayerTableRecord
  2
Pad_cs
 70
    0
 62
    7
  6
CONTINUOUS
  0
ENDTAB
  0
TABLE
  2
STYLE
  5
70
330
0
100
AcDbSymbolTable
 70
     2
  0
STYLE
  5
71
330
70
100
AcDbSymbolTableRecord
100
AcDbTextStyleTableRecord
  2
STANDARD
 70
     0
 40
0.0
 41
1.0
 50
0.0
 71
     0
 42
2.5
  3
arial.ttf
  4

  0
STYLE
  5
72
330
70
100
AcDbSymbolTableRecord
100
AcDbTextStyleTableRecord
  2
ANNOTATIVE
 70
     0
 40
0.0
 41
1.0
 50
0.0
 71
     0
 42
2.5
  3
arial.ttf
  4

  0
ENDTAB
  0
TABLE
  2
VIEW
  5
73
330
0
100
AcDbSymbolTable
 70
     0
  0
ENDTAB
  0
TABLE
  2
UCS
  5
74
330
0
100
AcDbSymbolTable
 70
     0
  0
ENDTAB
  0
TABLE
  2
APPID
  5
75
330
0
100
AcDbSymbolTable
 70
     2
  0
APPID
  5
76
330
75
100
AcDbSymbolTableRecord
100
AcDbRegAppTableRecord
  2
ACAD
 70
     0
  0
APPID
  5
77
330
75
100
AcDbSymbolTableRecord
100
AcDbRegAppTableRecord
  2
ACADANNOTATIVE
 70
     0
  0
ENDTAB
  0
TABLE
  2
DIMSTYLE
  5
78
330
0
100
AcDbSymbolTable
 70
     2
  0
DIMSTYLE
105
79
330
78
100
AcDbSymbolTableRecord
100
AcDbDimStyleTableRecord
  2
STANDARD
 70
     0
  3

  4

  5

  6

  7

 40
0.0
 41
2.5
 42
0.625
 43
3.75
 44
1.25
 45
0.0
 46
0.0
 47
0.0
 48
0.0
140
2.5
141
2.5
142
0.0
143
0.03937007874016
144
1.0
145
0.0
146
1.0
147
0.625
 71
     0
 72
     0
 73
     0
 74
     0
 75
     0
 76
     0
 77
     1
 78
     8
170
     0
171
     3
172
     1
173
     0
174
     0
175
     0
176
     0
177
     0
178
     0
270
     2
271
     2
272
     2
273
     2
274
     3
340
71
275
     0
280
     0
281
     0
282
     0
283
     0
284
     8
285
     0
286
     0
287
     3
288
     0
  0
ENDTAB
  0
TABLE
  2
BLOCK_RECORD
  5
A01
330
0
100
AcDbSymbolTable
  70
5
  0
BLOCK_RECORD
  5
A02
330
A01
100
AcDbSymbolTableRecord
100
AcDbBlockTableRecord
  2
*MODEL_SPACE
  0
BLOCK_RECORD
  5
A03
330
A01
100
AcDbSymbolTableRecord
100
AcDbBlockTableRecord
  2
*PAPER_SPACE
  0
ENDTAB
  0
ENDSEC
  0
SECTION
  2
BLOCKS
  0
BLOCK
  5
A04
330
A02
100
AcDbEntity
  8
0
100
AcDbBlockBegin
  2
*MODEL_SPACE
 70
   0
 10
0
 20
0
 30
0
  3
*MODEL_SPACE
  1
 
  0
ENDBLK
  5
A05
330
A02
100
AcDbEntity
  8
0
100
AcDbBlockEnd
  0
BLOCK
  5
A06
330
A03
100
AcDbEntity
 67
1
  8
0
100
AcDbBlockBegin
  2
*PAPER_SPACE
 70
   0
 10
0
 20
0
 30
0
  3
*PAPER_SPACE
  1
 
  0
ENDBLK
  5
A07
330
A03
100
AcDbEntity
 67
    1
  8
0
100
AcDbBlockEnd
  0
ENDSEC
  0
SECTION
  2
ENTITIES
  0
LINE
  5
A08
330
A02
100
AcDbEntity
  8
Pad_cs
100
AcDbLine
 10
0
 20
0
 30
5
 11
0
 21
50
 31
5
  0
LINE
  5
A09
330
A02
100
AcDbEntity
  8
Pad_cs
100
AcDbLine
 10
0
 20
0
 30
5
 11
50
 21
0
 31
5
  0
SPLINE
  5
A0A
330
A02
100
AcDbEntity
  8
Pad_cs
100
AcDbSpline
210
0
220
0
230
1
 70
8
 71
3
 72
80
 73
76
 74
0
 40
0
 40
0
 40
0
 40
0
 40
0.0448732
 40
0.0448732
 40
0.0448732
 40
0.0897464
 40
0.0897464
 40
0.0897464
 40
0.118636
 40
0.118636
 40
0.118636
 40
0.180012
 40
0.180012
 40
0.180012
 40
0.245038
 40
0.245038
 40
0.245038
 40
0.310076
 40
0.310076
 40
0.310076
 40
0.353583
 40
0.353583
 40
0.353583
 40
0.391412
 40
0.391412
 40
0.391412
 40
0.426745
 40
0.426745
 40
0.426745
 40
0.457585
 40
0.457585
 40
0.457585
 40
0.468879
 40
0.468879
 40
0.468879
 40
0.480617
 40
0.480617
 40
0.480617
 40
0.512193
 40
0.512193
 40
0.512193
 40
0.561546
 40
0.561546
 40
0.561546
 40
0.626801
 40
0.626801
 40
0.626801
 40
0.688378
 40
0.688378
 40
0.688378
 40
0.725782
 40
0.725782
 40
0.725782
 40
0.755306
 40
0.755306
 40
0.755306
 40
0.77313
 40
0.77313
 40
0.77313
 40
0.820197
 40
0.820197
 40
0.820197
 40
0.844891
 40
0.844891
 40
0.844891
 40
0.877876
 40
0.877876
 40
0.877876
 40
0.900588
 40
0.900588
 40
0.900588
 40
0.942964
 40
0.942964
 40
0.942964
 40
1
 40
1
 40
1
 40
1
 10
50
 20
0
 30
5
 10
49.9009
 20
1.24915
 30
5
 10
49.6249
 20
2.47824
 30
5
 10
49.2314
 20
3.66586
 30
5
 10
48.8382
 20
4.85471
 30
5
 10
48.3311
 20
6.00317
 30
5
 10
47.7751
 20
7.12349
 30
5
 10
47.4145
 20
7.84397
 30
5
 10
47.0401
 20
8.55726
 30
5
 10
46.6521
 20
9.26336
 30
5
 10
45.8331
 20
10.7659
 30
5
 10
44.9813
 20
12.2518
 30
5
 10
44.2343
 20
13.7922
 30
5
 10
43.4449
 20
15.421
 30
5
 10
42.7704
 20
17.1243
 30
5
 10
42.4515
 20
18.9129
 30
5
 10
42.1336
 20
20.702
 30
5
 10
42.1691
 20
22.5321
 30
5
 10
42.3173
 20
24.3365
 30
5
 10
42.4172
 20
25.5458
 30
5
 10
42.5711
 20
26.7498
 30
5
 10
42.7157
 20
27.9543
 30
5
 10
42.8404
 20
29.0016
 30
5
 10
42.9612
 20
30.0505
 30
5
 10
43.0118
 20
31.1045
 30
5
 10
43.0563
 20
32.0868
 30
5
 10
43.045
 20
33.0804
 30
5
 10
42.8488
 20
34.0474
 30
5
 10
42.6792
 20
34.8877
 30
5
 10
42.3432
 20
35.7105
 30
5
 10
41.7779
 20
36.364
 30
5
 10
41.5722
 20
36.6026
 30
5
 10
41.3375
 20
36.8238
 30
5
 10
41.0738
 20
37.0276
 30
5
 10
40.7988
 20
37.2389
 30
5
 10
40.5093
 20
37.4284
 30
5
 10
40.2055
 20
37.596
 30
5
 10
39.3902
 20
38.0483
 30
5
 10
38.5121
 20
38.374
 30
5
 10
37.6264
 20
38.6586
 30
5
 10
36.2382
 20
39.0993
 30
5
 10
34.8207
 20
39.4378
 30
5
 10
33.4103
 20
39.7985
 30
5
 10
31.5454
 20
40.2726
 30
5
 10
29.6815
 20
40.7727
 30
5
 10
27.8868
 20
41.4734
 30
5
 10
26.1972
 20
42.133
 30
5
 10
24.5627
 20
42.9782
 30
5
 10
23.1539
 20
44.1307
 30
5
 10
22.2989
 20
44.8301
 30
5
 10
21.5352
 20
45.6326
 30
5
 10
20.8067
 20
46.4607
 30
5
 10
20.2313
 20
47.1149
 30
5
 10
19.677
 20
47.7872
 30
5
 10
19.113
 20
48.4511
 30
5
 10
18.7736
 20
48.853
 30
5
 10
18.4272
 20
49.2488
 30
5
 10
18.0738
 20
49.6384
 30
5
 10
17.1396
 20
50.6622
 30
5
 10
16.1234
 20
51.6316
 30
5
 10
14.9346
 20
52.3561
 30
5
 10
14.3126
 20
52.7359
 30
5
 10
13.6457
 20
53.0438
 30
5
 10
12.9486
 20
53.2576
 30
5
 10
12.0176
 20
53.5454
 30
5
 10
11.0379
 20
53.6614
 30
5
 10
10.0651
 20
53.6354
 30
5
 10
9.39367
 20
53.6153
 30
5
 10
8.72842
 20
53.5398
 30
5
 10
8.06938
 20
53.4088
 30
5
 10
6.84121
 20
53.169
 30
5
 10
5.64838
 20
52.7723
 30
5
 10
4.49312
 20
52.2954
 30
5
 10
2.93757
 20
51.6506
 30
5
 10
1.4464
 20
50.8599
 30
5
 10
4.44089e-16
 20
50
 30
5
  0
ENDSEC
  0
SECTION
  2
OBJECTS
  0
DICTIONARY
  5
F000
330
0
100
AcDbDictionary
  3
ACAD_GROUP
350
F001
  0
DICTIONARY
  5
F001
330
F000
100
AcDbDictionary
  0
ENDSEC
  0
EOF