999
FreeCAD v0.20 29177 (Git)
  0
SECTION
  2
HEADER
  9
$ACADVER
  1
AC1014
  9
$ACADMAINTVER
 70
     9
  9
$DWGCODEPAGE
  3
ANSI_1252
  9
$TEXTSTYLE
  7
STANDARD
  9
$DIMSTYLE
  2
STANDARD
  9
$DIMTXSTY
  7
STANDARD
  9
$CMLSTYLE
  2
STANDARD
  9
$LUNITS
 70
2
  9
$INSUNITS
 70
4
  9
$PEXTMAX
 10
50
 20
50
 30
50
  9
$PEXTMIN
 10
0
 20
0
 30
0
  9
$HANDSEED
  5
FFFF
  0
ENDSEC
  0
SECTION
  2
CLASSES
  0
CLASS
  1
ACDBDICTIONARYWDFLT
  2
AcDbDictionaryWithDefault
  3
ObjectDBX Classes
 90
        0
280
     0
281
     0
  0
CLASS
  1
XRECORD
  2
AcDbXrecord
  3
ObjectDBX Classes
 90
        0
280
     0
281
     0
  0
CLASS
  1
LWPOLYLINE
  2
AcDbPolyline
  3
ObjectDBX Classes
 90
        0
280
     0
281
     1
  0
ENDSEC
  0
SECTION
  2
TABLES
  0
TABLE
  2
VPORT
  5
20
330
0
100
AcDbSymbolTable
 70
     1
  0
VPORT
  5
21
330
20
100
AcDbSymbolTableRecord
100
AcDbViewportTableRecord
  2
*ACTIVE
 70
     0
  0
ENDTAB
  0
TABLE
  2
LTYPE
  5
22
330
0
100
AcDbSymbolTable
 70
     1
  0
LTYPE
  5
23
330
21
100
AcDbSymbolTableRecord
100
AcDbLinetypeTableRecord
  2
BYBLOCK
 70
     0
  3

 72
    65
 73
     0
 40
0.0
  0
LTYPE
  5
24
330
21
100
AcDbSymbolTableRecord
100
AcDbLinetypeTableRecord
  2
BYLAYER
 70
     0
  3

 72
    65
 73
     0
 40
0.0
  0
LTYPE
  5
25
330
21
100
AcDbSymbolTableRecord
100
AcDbLinetypeTableRecord
  2
CONTINUOUS
 70
     0
  3
Solid line
 72
    65
 73
     0
 40
0.0
  0
ENDTAB
  0
TABLE
  2
LAYER
  5
A0C
330
0
100
AcDbSymbolTable
 70
3
  0
LAYER
  5
A0D
330
A0C
100
AcDbSymbolTableRecord
100
AcDbLayerTableRecord
  2
0
 70
   0
 62
   7
  6
CONTINUOUS
  0
LAYER
  5
A0E
330
A0C
100
AcDbSymbolTableRecord
100
AcDbLayerTableRecord
  2
none
 70
    0
 62
    7
  6
CONTINUOUS
  0
LAYER
  5
A0F
330
A0C
100
AcDbSymbolTableRecord
100
AcDbLayerTableRecord
  2
Pad_cs
 70
    0
 62
    7
  6
CONTINUOUS
  0
ENDTAB
  0
TABLE
  2
STYLE
  5
70
330
0
100
AcDbSymbolTable
 70
     2
  0
STYLE
  5
71
330
70
100
AcDbSymbolTableRecord
100
AcDbTextStyleTableRecord
  2
STANDARD
 70
     0
 40
0.0
 41
1.0
 50
0.0
 71
     0
 42
2.5
  3
arial.ttf
  4

  0
STYLE
  5
72
330
70
100
AcDbSymbolTableRecord
100
AcDbTextStyleTableRecord
  2
ANNOTATIVE
 70
     0
 40
0.0
 41
1.0
 50
0.0
 71
     0
 42
2.5
  3
arial.ttf
  4

  0
ENDTAB
  0
TABLE
  2
VIEW
  5
73
330
0
100
AcDbSymbolTable
 70
     0
  0
ENDTAB
  0
TABLE
  2
UCS
  5
74
330
0
100
AcDbSymbolTable
 70
     0
  0
ENDTAB
  0
TABLE
  2
APPID
  5
75
330
0
100
AcDbSymbolTable
 70
     2
  0
APPID
  5
76
330
75
100
AcDbSymbolTableRecord
100
AcDbRegAppTableRecord
  2
ACAD
 70
     0
  0
APPID
  5
77
330
75
100
AcDbSymbolTableRecord
100
AcDbRegAppTableRecord
  2
ACADANNOTATIVE
 70
     0
  0
ENDTAB
  0
TABLE
  2
DIMSTYLE
  5
78
330
0
100
AcDbSymbolTable
 70
     2
  0
DIMSTYLE
105
79
330
78
100
AcDbSymbolTableRecord
100
AcDbDimStyleTableRecord
  2
STANDARD
 70
     0
  3

  4

  5

  6

  7

 40
0.0
 41
2.5
 42
0.625
 43
3.75
 44
1.25
 45
0.0
 46
0.0
 47
0.0
 48
0.0
140
2.5
141
2.5
142
0.0
143
0.03937007874016
144
1.0
145
0.0
146
1.0
147
0.625
 71
     0
 72
     0
 73
     0
 74
     0
 75
     0
 76
     0
 77
     1
 78
     8
170
     0
171
     3
172
     1
173
     0
174
     0
175
     0
176
     0
177
     0
178
     0
270
     2
271
     2
272
     2
273
     2
274
     3
340
71
275
     0
280
     0
281
     0
282
     0
283
     0
284
     8
285
     0
286
     0
287
     3
288
     0
  0
ENDTAB
  0
TABLE
  2
BLOCK_RECORD
  5
A01
330
0
100
AcDbSymbolTable
  70
5
  0
BLOCK_RECORD
  5
A02
330
A01
100
AcDbSymbolTableRecord
100
AcDbBlockTableRecord
  2
*MODEL_SPACE
  0
BLOCK_RECORD
  5
A03
330
A01
100
AcDbSymbolTableRecord
100
AcDbBlockTableRecord
  2
*PAPER_SPACE
  0
ENDTAB
  0
ENDSEC
  0
SECTION
  2
BLOCKS
  0
BLOCK
  5
A04
330
A02
100
AcDbEntity
  8
0
100
AcDbBlockBegin
  2
*MODEL_SPACE
 70
   0
 10
0
 20
0
 30
0
  3
*MODEL_SPACE
  1
 
  0
ENDBLK
  5
A05
330
A02
100
AcDbEntity
  8
0
100
AcDbBlockEnd
  0
BLOCK
  5
A06
330
A03
100
AcDbEntity
 67
1
  8
0
100
AcDbBlockBegin
  2
*PAPER_SPACE
 70
   0
 10
0
 20
0
 30
0
  3
*PAPER_SPACE
  1
 
  0
ENDBLK
  5
A07
330
A03
100
AcDbEntity
 67
    1
  8
0
100
AcDbBlockEnd
  0
ENDSEC
  0
SECTION
  2
ENTITIES
  0
SPLINE
  5
A08
330
A02
100
AcDbEntity
  8
Pad_cs
100
AcDbSpline
210
0
220
0
230
1
 70
8
 71
3
 72
35
 73
31
 74
0
 40
0
 40
0
 40
0
 40
0
 40
0.178956
 40
0.178956
 40
0.178956
 40
0.306682
 40
0.306682
 40
0.306682
 40
0.395385
 40
0.395385
 40
0.395385
 40
0.433242
 40
0.433242
 40
0.433242
 40
0.499922
 40
0.499922
 40
0.499922
 40
0.549573
 40
0.549573
 40
0.549573
 40
0.59321
 40
0.59321
 40
0.59321
 40
0.693224
 40
0.693224
 40
0.693224
 40
0.820989
 40
0.820989
 40
0.820989
 40
1
 40
1
 40
1
 40
1
 10
30
 20
4.44089e-16
 30
5
 10
28.175
 20
1.82391
 30
5
 10
26.268
 20
3.56924
 30
5
 10
24.2424
 20
5.16862
 30
5
 10
22.7969
 20
6.30967
 30
5
 10
21.2888
 20
7.37318
 30
5
 10
19.7118
 20
8.32451
 30
5
 10
18.6175
 20
8.98714
 30
5
 10
17.4879
 20
9.58915
 30
5
 10
16.3443
 20
10.1609
 30
5
 10
15.8555
 20
10.4036
 30
5
 10
15.3683
 20
10.6494
 30
5
 10
14.8828
 20
10.8984
 30
5
 10
14.0343
 20
11.3422
 30
5
 10
13.1828
 20
11.818
 30
5
 10
12.5
 20
12.5
 30
5
 10
11.9927
 20
13.0065
 30
5
 10
11.5984
 20
13.6121
 30
5
 10
11.248
 20
14.2342
 30
5
 10
10.94
 20
14.7823
 30
5
 10
10.661
 20
15.3461
 30
5
 10
10.3793
 20
15.9082
 30
5
 10
9.73896
 20
17.1991
 30
5
 10
9.07254
 20
18.4789
 30
5
 10
8.32451
 20
19.7118
 30
5
 10
7.37318
 20
21.2888
 30
5
 10
6.30967
 20
22.7969
 30
5
 10
5.16862
 20
24.2424
 30
5
 10
3.56924
 20
26.268
 30
5
 10
1.82391
 20
28.175
 30
5
 10
0
 20
30
 30
5
  0
LINE
  5
A09
330
A02
100
AcDbEntity
  8
Pad_cs
100
AcDbLine
 10
30
 20
0
 30
5
 11
60
 21
0
 31
5
  0
SPLINE
  5
A0A
330
A02
100
AcDbEntity
  8
Pad_cs
100
AcDbSpline
210
0
220
0
230
1
 70
8
 71
3
 72
53
 73
49
 74
0
 40
0
 40
0
 40
0
 40
0
 40
0.0819345
 40
0.0819345
 40
0.0819345
 40
0.163869
 40
0.163869
 40
0.163869
 40
0.211327
 40
0.211327
 40
0.211327
 40
0.283016
 40
0.283016
 40
0.283016
 40
0.35872
 40
0.35872
 40
0.35872
 40
0.391332
 40
0.391332
 40
0.391332
 40
0.43798
 40
0.43798
 40
0.43798
 40
0.49991
 40
0.49991
 40
0.49991
 40
0.551832
 40
0.551832
 40
0.551832
 40
0.606977
 40
0.606977
 40
0.606977
 40
0.681913
 40
0.681913
 40
0.681913
 40
0.716831
 40
0.716831
 40
0.716831
 40
0.776422
 40
0.776422
 40
0.776422
 40
0.836013
 40
0.836013
 40
0.836013
 40
0.918007
 40
0.918007
 40
0.918007
 40
1
 40
1
 40
1
 40
1
 10
60
 20
0
 30
5
 10
59.9995
 20
2.55171
 30
5
 10
59.8933
 20
5.10351
 30
5
 10
59.6268
 20
7.64177
 30
5
 10
59.359
 20
10.1788
 30
5
 10
58.9319
 20
12.7023
 30
5
 10
58.2556
 20
15.1637
 30
5
 10
57.8635
 20
16.5888
 30
5
 10
57.3866
 20
17.9916
 30
5
 10
56.805
 20
19.3508
 30
5
 10
55.9284
 20
21.404
 30
5
 10
54.8034
 20
23.356
 30
5
 10
53.4159
 20
25.1071
 30
5
 10
51.9553
 20
26.9616
 30
5
 10
50.2028
 20
28.5717
 30
5
 10
48.303
 20
29.9668
 30
5
 10
47.4854
 20
30.5699
 30
5
 10
46.6421
 20
31.1373
 30
5
 10
45.7872
 20
31.6858
 30
5
 10
44.5646
 20
32.4711
 30
5
 10
43.3172
 20
33.2168
 30
5
 10
42.091
 20
33.9964
 30
5
 10
40.4665
 20
35.0311
 30
5
 10
38.8669
 20
36.1337
 30
5
 10
37.5
 20
37.5
 30
5
 10
36.3551
 20
38.6448
 30
5
 10
35.3939
 20
39.9567
 30
5
 10
34.5047
 20
41.3053
 30
5
 10
33.5602
 20
42.7401
 30
5
 10
32.6883
 20
44.2208
 30
5
 10
31.7625
 20
45.6675
 30
5
 10
30.5097
 20
47.6345
 30
5
 10
29.1436
 20
49.5426
 30
5
 10
27.5202
 20
51.2234
 30
5
 10
26.7654
 20
52.0088
 30
5
 10
25.961
 20
52.7396
 30
5
 10
25.1071
 20
53.4159
 30
5
 10
23.6515
 20
54.5685
 30
5
 10
22.0584
 20
55.5415
 30
5
 10
20.3831
 20
56.3387
 30
5
 10
18.7075
 20
57.1371
 30
5
 10
16.9517
 20
57.7637
 30
5
 10
15.1637
 20
58.2556
 30
5
 10
12.7023
 20
58.9319
 30
5
 10
10.1788
 20
59.359
 30
5
 10
7.64177
 20
59.6268
 30
5
 10
5.10351
 20
59.8933
 30
5
 10
2.55171
 20
59.9995
 30
5
 10
0
 20
60
 30
5
  0
LINE
  5
A0B
330
A02
100
AcDbEntity
  8
Pad_cs
100
AcDbLine
 10
0
 20
30
 30
5
 11
0
 21
60
 31
5
  0
ENDSEC
  0
SECTION
  2
OBJECTS
  0
DICTIONARY
  5
F000
330
0
100
AcDbDictionary
  3
ACAD_GROUP
350
F001
  0
DICTIONARY
  5
F001
330
F000
100
AcDbDictionary
  0
ENDSEC
  0
EOF